<svg width="36" height="36" viewBox="0 0 36 36" fill="none" xmlns="http://www.w3.org/2000/svg">
<circle cx="18" cy="18" r="18" fill="white"/>
<path d="M11.5677 13.5973C12.6754 13.5973 13.5734 12.6993 13.5734 11.5916C13.5734 10.4839 12.6754 9.58594 11.5677 9.58594C10.46 9.58594 9.56207 10.4839 9.56207 11.5916C9.56207 12.6993 10.46 13.5973 11.5677 13.5973Z" fill="#2B2B39"/>
<path d="M15.4661 15.117V26.2445H18.921V20.7417C18.921 19.2897 19.1942 17.8835 20.9945 17.8835C22.7701 17.8835 22.7921 19.5436 22.7921 20.8334V26.2454H26.2489V20.1431C26.2489 17.1456 25.6035 14.842 22.1 14.842C20.4179 14.842 19.2904 15.7651 18.8294 16.6387H18.7826V15.117H15.4661ZM9.83594 15.117H13.2964V26.2445H9.83594V15.117Z" fill="#2B2B39"/>
</svg>
