<svg width="644" height="551" viewBox="0 0 644 551" fill="none" xmlns="http://www.w3.org/2000/svg">
<path opacity="0.7" d="M144.418 172.868L357.879 508.463L572.193 172.868H144.418Z" stroke="#2B2B39" stroke-linecap="round" stroke-linejoin="round" stroke-dasharray="3 3"/>
<circle cx="541.635" cy="179.633" r="96.4193" fill="white"/>
<circle cx="541.635" cy="179.633" r="95.4193" stroke="#FFAF2E" stroke-opacity="0.6" stroke-width="2"/>
<mask id="mask0_1_347" style="mask-type:alpha" maskUnits="userSpaceOnUse" x="366" y="49" width="278" height="272">
<path d="M638.055 179.633C638.055 126.382 594.887 49.0002 541.636 49.0002C492.163 49.0002 451.393 115.79 445.857 167.969C396.732 161.749 330.914 137.644 390.787 182.743C414.538 200.634 429.155 226.547 457.671 227.065C474.229 256.313 505.627 276.052 541.636 276.052C568.135 276.052 592.137 265.362 609.566 248.059L604.991 291.234C604.991 374.435 660.847 259.257 638.055 179.633Z" fill="#C4C4C4"/>
</mask>
<g mask="url(#mask0_1_347)">
<path d="M537.097 127.502C511.151 148.198 513.796 192.2 512.229 216.151C511.128 232.906 507.68 256.917 505.49 270.659L554.103 277.817V193.576C554.103 165.496 556.057 130.986 563.717 123.552C558.382 122.961 553.67 123.113 550.441 123.552C547.88 123.532 544.673 123.964 541.163 125.384C539.619 126.3 538.484 126.71 537.097 127.502Z" fill="white"/>
<path opacity="0.5" d="M537.097 127.501C511.151 148.198 513.796 192.199 512.229 216.15C511.128 232.905 507.68 256.917 505.49 270.658C523.977 277.461 532.079 279.082 554.103 277.816V193.576C554.103 171.869 555.271 146.319 559.342 132.406C554.962 139.427 548.891 173.316 549.817 193.576C550.744 213.836 550.126 253.304 544.258 264.295C538.383 275.286 508.107 267.042 510.887 258.494C513.667 249.945 513.667 222.163 516.138 190.107C518.115 164.462 530.936 137.684 537.097 127.501Z" fill="#FFB83B"/>
<path d="M544.26 264.295C538.385 275.286 508.109 267.043 510.889 258.494C517.993 269.485 534.987 266.127 537.767 261.853C540.547 257.579 544.877 246.893 544.877 228.88C544.877 214.47 548.584 186.851 550.437 174.843C549.831 181.552 549.567 188.068 549.819 193.576C550.746 213.836 550.128 253.304 544.26 264.295Z" fill="#FFF9EF"/>
<path d="M516.137 190.108C517.687 170.07 525.847 149.339 532.283 136.375C528.65 144.211 521.456 164.463 521.703 182.78C521.95 201.098 516.424 223.996 513.627 233.155C514.284 221.127 514.902 206.153 516.137 190.108Z" fill="#FFF9EF"/>
<path d="M500.689 303.984L489.873 302.458C491.524 291.158 502.975 235.962 507.721 199.633C508.754 191.707 509.827 183.415 510.916 174.856C515.123 141.706 529.685 131.933 541.159 125.384C515.213 146.081 513.792 192.2 512.225 216.151C511.124 232.906 507.676 256.917 505.486 270.659C505.171 272.631 500.942 302.487 500.689 303.984Z" fill="#FFAF2E"/>
<path d="M507.721 199.632C508.754 191.707 509.827 183.415 510.916 174.856C510.596 185.232 509.827 202.281 507.721 219.721C503.761 252.525 499.454 282.307 489.873 302.457C491.524 291.157 502.975 235.962 507.721 199.632Z" fill="#F3A00D"/>
<path d="M604.502 303.068C599.251 280.171 591.523 190.108 591.523 190.108C591.523 190.108 597.752 158.326 587.508 142.786C580.96 132.846 563.718 123.552 563.718 123.552C556.058 130.985 554.103 165.496 554.103 193.576V277.816V307.037C567.425 309.784 589.67 311.006 604.502 303.068Z" fill="#FFAF2E"/>
<path d="M557.995 137.901C555.007 152.407 554.103 174.479 554.103 193.576V265.516C555.401 254.933 557.72 227.17 556.614 200.793C555.507 174.415 557.074 147.874 557.995 137.901Z" fill="#F9A319"/>
<path d="M604.502 303.068C599.251 280.171 591.523 190.108 591.523 190.108C591.523 190.108 597.752 158.326 587.508 142.786C587.508 159.272 579.477 181.559 584.11 203.846C590.344 233.817 595.539 261.242 589.67 282.002C584.975 298.611 563.999 305.612 554.103 307.037C567.425 309.784 589.67 311.006 604.502 303.068Z" fill="#F9A319"/>
<path d="M638.793 213.31C640.646 194.382 622.113 166.6 601.103 145.839C591.758 136.606 572.68 125.69 563.716 123.552L591.522 190.108C591.522 190.108 600.159 199.633 611.15 216.151C614.553 208.718 628.908 203.846 638.793 213.31Z" fill="#FFAF2E"/>
<path d="M638.794 213.31C640.647 194.381 622.108 166.599 601.104 145.839C596.224 141.019 588.692 135.739 581.33 131.49C583.7 135.56 588.805 144.862 590.287 149.502C592.141 155.303 631.998 178.49 628.6 208.265C632.122 208.768 635.677 210.327 638.794 213.31Z" fill="#F9A319"/>
<path d="M607.844 208.262C608.428 202.498 613.92 199.136 617.812 198.175C626.562 196.014 635.307 198.656 639.681 205.14C643.5 210.795 639.199 219.07 635.307 222.192C636.037 211.384 631.909 207.542 622.912 208.983C613.92 210.424 611.247 215.948 610.764 220.751C608.574 219.07 607.114 215.467 607.844 208.262Z" fill="#F9A319"/>
<path d="M622.911 208.983C613.919 210.424 611.246 215.948 610.757 220.751C611.572 230.758 613.043 254.279 612.459 268.305C611.734 285.837 610.757 291.841 607.601 299.526C604.439 307.212 608.618 315.195 614.694 313.754C620.771 312.312 625.73 305.29 624.275 299.526C622.815 293.762 624.275 287.998 626.701 283.915C629.133 279.832 635.305 244.768 635.305 222.192C636.035 211.384 631.902 207.542 622.911 208.983Z" fill="#FFD0B7"/>
<path d="M510.919 174.856C515.126 141.706 529.688 131.933 541.162 125.384C531.57 130.491 509.942 136.375 494.166 164.12C480.766 187.685 470.584 193.891 466.4 194.992C471.455 199.672 480.21 213.745 479.373 222.774C484.815 218.81 500.411 205.506 507.723 199.633C508.757 191.707 509.83 183.415 510.919 174.856Z" fill="#FFAF2E"/>
<path d="M507.722 199.632C508.755 191.707 509.828 183.415 510.917 174.856C507.935 189.829 496.675 198.656 490.497 200.793C485.549 202.502 480.573 211.886 478.709 216.363C479.287 218.638 479.551 220.824 479.371 222.775C484.813 218.81 500.409 205.506 507.722 199.632Z" fill="#F9A319"/>
<path d="M474.629 209.666C471.17 198.978 466.093 195.654 463.925 195.298C464.65 194.585 466.57 192.939 468.951 192.298C471.922 191.496 480.307 192.298 484.093 198.444C487.299 203.648 490.854 212.071 484.093 220.355C478.684 226.981 467.059 226.322 461.92 225.164C467.598 224.452 477.746 219.286 474.629 209.666Z" fill="#F9A319"/>
<path d="M461.919 225.164C467.597 224.452 477.745 219.286 474.628 209.666C472.14 201.98 468.871 196.519 463.924 195.297C462.755 195.728 460.458 196.68 451.372 192.832C440.016 188.023 402.97 171.188 400.265 168.784C397.561 166.379 391.613 158.096 383.23 158.363C374.848 158.63 377.822 173.86 387.827 176.533C397.832 179.205 406.215 186.419 411.082 191.764C415.949 197.107 442.178 223.027 461.919 225.164Z" fill="#FFD0B7"/>
<path d="M540.902 125.396V108.822L563.715 97.9072V123.552C553.544 142.287 539.976 137.518 540.902 125.396Z" fill="#FFD0B7"/>
<path d="M543.425 107.616L563.716 97.9072V123.552C563.699 123.589 563.677 123.626 563.66 123.663C562.638 125.529 561.588 127.159 560.515 128.571C556.741 122.956 546.761 114.242 540.903 109.89V109.029L543.425 107.616Z" fill="url(#paint0_linear_1_347)"/>
<path d="M529.58 67.0428C529.58 76.7703 534.516 77.9534 538.15 77.4401L560.367 101.315C560.626 101.829 563.114 103.945 563.114 108.94C563.114 114.005 567.146 103.493 570.134 101.315C576.323 96.8073 580.529 96.6736 582.489 89.2387C584.174 82.8566 581.798 78.3386 579.85 77.4401C578.682 76.9268 577.435 75.8229 575.565 75.5149C573.694 75.2064 573.223 72.0492 573.223 70.5086C573.093 69.3537 572.588 67.7471 569.606 65.8874C567.753 64.7325 562.962 64.2186 561.142 65.8874C559.974 66.5295 557.323 67.1971 556.077 64.7325C554.83 62.2679 552.179 63.1919 551.011 63.9617C547.585 65.1937 539.638 61.5747 536.549 52.1104C532.843 56.9952 529.58 60.3533 529.58 67.0428Z" fill="#2B2B39"/>
<path d="M579.851 77.4404C578.683 76.9265 577.436 75.8227 575.566 75.5146C585.203 82.6016 577.436 93.9562 571.258 97.0085C566.316 99.4503 563.772 105.98 563.115 108.94C563.115 114.005 567.147 103.493 570.135 101.315C576.324 96.807 580.53 96.6733 582.49 89.239C584.175 82.8569 581.8 78.3383 579.851 77.4404Z" fill="#13131C"/>
<path d="M551.013 63.9617C547.587 65.1937 539.641 61.5742 536.552 52.1104C536.608 57.8032 539.416 68.7599 550.199 67.0428C551.884 66.4851 553.849 65.3751 556.096 67.595C558.342 69.8149 564.026 64.7319 569.608 65.8874C567.755 64.7319 562.964 64.218 561.145 65.8874C559.977 66.5289 557.326 67.1965 556.079 64.7319C554.832 62.2673 552.187 63.1914 551.013 63.9617Z" fill="#13131C"/>
<path d="M549.458 109.787C558.5 107.014 562.055 100.673 562.707 97.8498C562.97 96.6943 563.616 93.4855 563.487 92.0737C562.549 89.3011 559.719 93.2286 558.421 95.5394C556.686 98.6201 556.372 87.8376 558.421 85.1422C561.224 81.445 556.86 80.466 554.911 79.3661C554.002 78.8522 551.486 77.9798 548.677 78.5958C545.869 79.2118 544.392 77.5685 543.999 76.67C542.96 75.0018 540.259 72.6654 537.765 76.67C531.84 85.6044 532.958 97.3364 534.261 102.086C535.558 105.808 540.416 112.56 549.458 109.787Z" fill="#FFD0B7"/>
</g>
<g filter="url(#filter0_d_1_347)">
<circle cx="155.659" cy="173.022" r="97.659" fill="white"/>
<circle cx="155.659" cy="173.022" r="96.659" stroke="#217BF4" stroke-opacity="0.6" stroke-width="2"/>
</g>
<mask id="mask1_1_347" style="mask-type:alpha" maskUnits="userSpaceOnUse" x="58" y="49" width="220" height="246">
<path d="M58 173.45C58 119.514 101.723 49.0869 155.659 49.0869C285.668 45.4247 282.056 158.445 274.681 215.412H243.868C228.172 248.348 194.574 271.109 155.659 271.109C142.708 271.109 130.346 268.588 119.037 264.01C118.269 263.699 117.506 263.379 116.748 263.049C114.205 269.296 109.271 283.774 109.881 291.708C97.674 301.627 67.7536 282.4 70.2006 220.753C62.4267 206.739 58 190.611 58 173.45Z" fill="#C4C4C4"/>
</mask>
<g mask="url(#mask1_1_347)">
<path d="M267.623 193.067C261.65 194.878 254.24 197.437 248.742 196.102C244.335 195.031 244.666 193.639 244.168 190.719C245.565 188.35 251.469 183.795 262.899 181.472C277.185 178.567 278.128 189.881 267.623 193.067Z" fill="#FEBE9D"/>
<path d="M202.666 150.386C200.906 146.112 196.068 145.4 193.869 145.578C177.845 151.989 187.585 198.198 191.355 204.342C195.125 210.485 199.524 212.889 203.923 214.759C208.321 216.629 217.119 215.56 219.318 214.225C221.518 212.889 222.146 211.553 224.659 211.286C227.173 211.019 231.258 210.218 232.828 208.615C234.399 207.013 235.656 205.41 239.427 205.41C243.197 205.41 246.339 202.739 247.595 201.137C248.852 199.534 249.795 199.267 251.994 198.732C254.194 198.198 256.393 198.198 257.021 195.527C257.65 192.856 257.964 187.514 257.65 184.843C257.335 182.172 257.335 182.172 255.764 182.439C254.194 182.706 250.109 184.843 248.852 184.843C247.595 184.843 245.396 184.576 243.197 185.377C240.997 186.179 233.771 189.117 229.058 190.452C224.345 191.788 217.433 192.055 218.061 190.185C218.69 188.316 220.889 182.974 216.49 182.974C212.092 182.974 212.092 180.035 210.207 173.892C208.321 167.748 204.865 155.728 202.666 150.386Z" fill="#217BF4"/>
<path d="M249.168 196.597C250.529 196.508 253.629 195.956 255.137 194.46M250.424 187.783C251.367 186.981 253.818 185.378 256.08 185.378L250.424 187.783ZM252.624 189.118L255.137 188.05L252.624 189.118ZM249.482 192.858C250.948 192.679 254.257 192.003 255.766 190.721L249.482 192.858Z" stroke="#2068D9" stroke-width="1.07894"/>
<path d="M250.02 199.286C249.446 197.156 248.874 193.831 249.481 191.254C248.852 193.123 247.03 197.504 244.768 200.068C241.94 203.274 238.484 203.006 237.856 200.335C237.227 197.664 233.457 199.267 232.2 202.472C230.944 205.677 228.116 209.684 223.403 209.951C218.988 210.201 216.779 211.154 215.484 211.713C215.397 211.751 215.313 211.787 215.234 211.821C213.977 212.355 214.291 210.218 215.548 208.883C216.805 207.547 218.376 204.075 218.061 202.205C216.491 205.143 213.349 209.15 208.322 210.485C203.294 211.821 200.467 208.616 204.237 205.677C208.007 202.739 210.835 200.068 211.777 197.664C212.134 196.756 211.637 197.068 210.644 197.693C209.01 198.722 206.03 200.596 203.294 199.267C198.896 197.13 199.524 190.987 202.98 189.918C204.084 189.577 205.734 189.481 207.509 189.377C211.289 189.158 215.635 188.905 216.491 186.179C214.606 187.247 203.609 188.85 203.294 182.172C202.98 175.495 202.352 170.954 200.781 167.214C200.259 165.972 200.014 164.347 199.76 162.652C199.247 159.244 198.691 155.553 195.754 154.126C194.915 153.719 191.447 153.874 186.709 154.696C181.829 170.33 188.412 199.546 191.355 204.342C195.125 210.486 199.524 212.89 203.923 214.759C208.321 216.629 217.119 215.561 219.318 214.225C220.037 213.789 220.589 213.352 221.092 212.953C222.13 212.131 222.968 211.467 224.659 211.287C227.173 211.02 231.258 210.219 232.828 208.616C232.941 208.501 233.052 208.386 233.163 208.271C234.593 206.791 235.927 205.411 239.427 205.411C243.197 205.411 246.339 202.74 247.595 201.137C248.396 200.116 249.069 199.637 250.02 199.286Z" fill="#1771EA"/>
<path d="M194.4 208.417C195.962 206.682 198.614 204.244 201.095 203.54C204.866 202.472 202.98 201.938 199.838 203.006C196.697 204.074 196.068 203.273 195.754 199.801C195.44 196.328 196.697 190.185 198.582 185.911C200.467 181.637 202.98 168.282 197.639 163.207C195.182 160.873 190 161.138 185.149 163.535C183.936 179.448 188.906 200.35 191.355 204.341C192.332 205.932 193.35 207.272 194.4 208.417Z" fill="#2068D9"/>
<path d="M246.967 196.864C249.732 193.659 249.376 187.871 248.852 185.378C249.69 187.516 250.863 192.537 248.852 195.529C246.339 199.268 246.339 197.665 246.967 196.864Z" fill="#3881F2"/>
<path d="M171.249 274.056C180.549 270.424 192.928 272.187 197.955 273.522C198.583 273.682 199.212 273.522 200.468 269.783C201.725 266.044 200.783 256.695 200.468 255.894C200.154 255.092 200.154 254.558 200.468 253.223C202.039 244.408 196.07 223.307 193.556 211.554C191.043 199.802 194.499 188.85 197.955 180.837C201.411 172.824 198.583 162.407 197.641 151.723C196.698 141.039 186.016 140.237 171.563 137.299C157.11 134.361 138.572 134.361 130.403 151.99C122.234 169.619 129.775 192.59 130.403 205.678C131.032 218.766 124.748 229.985 120.663 241.47C116.579 252.956 117.522 261.503 116.265 268.982C115.259 274.965 117.312 277.529 118.464 278.063C118.569 279.399 118.778 282.978 118.778 286.611C118.778 291.151 120.663 293.555 125.376 293.288C130.089 293.021 137.63 290.35 144.228 286.076C150.826 281.803 159.623 278.597 171.249 274.056Z" fill="#217BF4"/>
<path d="M171.563 223.574C163.017 229.984 152.502 228.737 148.313 227.313C148.313 228.47 150.324 231.373 158.367 233.724C168.421 236.662 175.333 229.984 178.161 224.642C180.423 220.368 185.387 214.314 187.587 211.821C185.806 213.067 180.109 217.163 171.563 223.574Z" fill="#3881F2"/>
<path d="M197.955 273.522C192.928 272.187 180.549 270.424 171.248 274.056C169.973 274.555 168.73 275.037 167.521 275.506C157.718 279.314 150.102 282.272 144.228 286.076C137.63 290.35 130.089 293.021 125.376 293.288C120.663 293.555 118.778 291.151 118.778 286.61C118.778 282.978 118.569 279.399 118.464 278.063C117.312 277.529 115.259 274.964 116.265 268.982C116.668 266.584 116.845 264.076 117.034 261.396C117.434 255.72 117.889 249.273 120.663 241.47C121.608 238.813 122.671 236.17 123.739 233.515C127.286 224.693 130.886 215.738 130.403 205.678C130.237 202.209 129.585 198.045 128.868 193.47C126.881 180.787 124.4 164.946 130.403 151.989C130.507 151.767 130.611 151.548 130.718 151.331C143.068 141.49 155.317 137.3 165.585 136.314C167.628 136.566 169.632 136.906 171.563 137.299C173.11 137.613 174.613 137.904 176.067 138.184C181.694 139.269 186.564 140.208 190.252 141.857C190.884 142.465 191.361 143.088 191.671 143.709C196.07 152.523 186.958 162.673 179.732 167.748C172.505 172.823 174.076 174.959 182.245 172.822C189.486 170.928 188.334 171.552 179.446 176.368C178.307 176.986 177.04 177.672 175.647 178.431C163.394 185.109 177.218 182.437 187.272 180.3C197.326 178.164 195.441 183.239 193.242 185.375C192.321 186.271 191.289 186.79 190.379 187.25C189.115 187.887 188.084 188.407 187.901 189.649C187.586 191.786 185.387 194.19 182.559 195.258C182.336 195.343 182.109 195.427 181.878 195.512C179.196 196.509 176.127 197.648 174.39 200.6C172.505 203.806 167.792 204.339 162.137 204.072C156.481 203.805 148.941 205.941 155.853 211.551C162.765 217.16 172.505 213.153 177.532 211.016C165.907 223.303 149.255 214.222 146.113 209.948C142.971 205.674 141.4 204.339 137.315 205.407C133.231 206.476 131.975 211.549 135.745 212.618C137.415 213.091 139.148 212.883 140.559 212.713C142.333 212.5 143.599 212.348 143.599 213.687C143.599 215.721 138.647 219.287 134.268 222.44C133.473 223.012 132.698 223.57 131.975 224.104C127.261 227.576 132.603 230.514 136.059 231.583C139.515 232.651 138.573 233.986 132.917 239.329C125.062 247.076 140.144 254.287 153.968 246.007C165.028 239.383 174.704 238.795 178.161 239.329C174.181 240.309 164.525 243.817 157.738 250.014C152.018 255.237 144.441 256.695 137.704 257.992C134.449 258.618 131.391 259.206 128.832 260.164C120.977 263.102 125.062 268.978 131.66 269.245C135.18 269.388 141.381 266.034 148.499 262.185C154.727 258.817 161.656 255.071 168.107 252.952C181.931 248.411 191.357 251.884 196.384 253.754C188.215 253.22 165.279 259.897 153.34 266.575C147.565 269.805 143.26 271.035 139.501 272.109C135.488 273.256 132.098 274.225 128.204 277.259C120.663 283.136 130.718 287.142 137.944 286.074C141.173 285.596 145.717 282.987 150.907 280.007C157.334 276.317 164.75 272.06 171.877 270.582C181.41 268.605 193.471 270.743 199.453 272.343C198.818 273.59 198.386 273.631 197.955 273.522Z" fill="#1771EA"/>
<path d="M129.997 201.197C131.297 199.624 133.17 197.235 134.174 195.528C135.744 192.858 136.687 191.789 138.886 193.659C141.086 195.528 144.542 195.262 146.427 193.125C146.39 193.272 146.353 193.417 146.316 193.561C145.422 197.069 144.801 199.504 151.14 198.734C153.458 198.452 156.784 198.83 160.001 199.196C165.942 199.87 171.512 200.503 169.677 196.864C166.849 191.255 164.964 177.633 170.62 172.825C175.144 168.979 178.998 163.565 180.36 161.339C182.873 156.264 182.622 146.382 161.508 147.45C153.127 147.874 143.986 146.116 135.432 144.418C133.501 146.475 131.8 148.974 130.403 151.989C124.399 164.946 126.881 180.787 128.868 193.47C129.298 196.214 129.704 198.81 129.997 201.197Z" fill="#2068D9"/>
<path d="M185.701 263.638C192.237 263.852 193.661 259.809 193.556 257.762C193.556 256.159 195.441 256.159 194.499 263.104C193.556 270.049 182.245 266.309 172.505 267.11C162.765 267.912 148.941 274.056 145.485 275.925C162.451 263.371 177.532 263.371 185.701 263.638Z" fill="#3881F2"/>
<path d="M192.925 254.824C193.658 257.584 194.999 264.547 194.496 270.316M123.489 279.665C123.489 281.623 123.677 286.342 124.431 289.548L123.489 279.665ZM131.03 276.193C131.762 278.596 133.166 283.938 132.915 286.075L131.03 276.193ZM136.056 273.521C136.58 275.391 137.627 280.573 137.627 286.342L136.056 273.521ZM142.34 274.055V281V274.055ZM147.367 270.316C147.996 271.919 149.064 275.872 148.31 278.863L147.367 270.316ZM152.394 267.378C152.918 269.159 153.966 273.415 153.966 276.193L152.394 267.378ZM158.678 265.775V272.72V265.775ZM164.648 262.303C165.172 264.618 165.905 270.102 164.648 273.521V262.303ZM169.047 260.967C169.78 262.481 171.12 266.31 170.618 269.515L169.047 260.967ZM176.587 259.632C176.587 261.947 176.587 266.79 176.587 267.645V259.632ZM180.672 257.495C180.986 259.632 181.614 264.814 181.614 268.446L180.672 257.495ZM189.155 260.7C189.26 262.837 189.281 267.592 188.527 269.515L189.155 260.7Z" stroke="#2068D9" stroke-width="1.07894"/>
<path d="M126.633 274.858C147.16 265.51 190.54 247.721 198.583 254.559" stroke="#3881F2" stroke-width="1.07894"/>
<path d="M116.265 268.981C115.259 274.964 117.312 277.528 118.464 278.062C118.514 278.699 118.588 279.847 118.651 281.268C121.522 278.953 127.89 274.002 130.403 272.72C125.691 274.056 119.467 276.727 118.651 270.85C117.836 264.974 120.977 258.831 122.863 255.626C124.748 252.42 127.003 242.804 124.619 231.319C123.265 234.716 121.868 238.081 120.663 241.469C116.579 252.954 117.522 261.502 116.265 268.981Z" fill="#2068D9"/>
<path d="M93.3215 282.414C93.751 276.186 94.8432 268.612 98.0458 263.947C100.612 260.208 101.796 261.012 104.702 261.585C106.42 263.732 109.384 270.904 107.494 282.414C105.132 296.801 92.5664 293.365 93.3215 282.414Z" fill="#FEBE9D"/>
<path d="M91.7566 273.522C92.2593 272.454 92.5945 270.94 92.6992 270.317C93.6417 263.372 92.6992 256.695 92.6992 245.21C92.6992 233.724 95.5273 221.704 98.0405 217.43C100.554 213.157 99.9256 209.417 101.183 207.281C102.439 205.144 106.21 202.74 104.953 195.528C103.696 188.316 108.095 187.515 108.409 178.433C108.723 169.352 110.608 157.866 116.578 149.853C122.548 141.84 144.541 136.498 146.741 151.723C148.94 166.947 140.771 177.098 137.315 183.775C133.859 190.453 129.46 204.876 128.832 208.616C128.203 212.355 125.375 223.04 125.375 227.58C125.375 232.121 124.119 240.401 122.234 247.613C120.348 254.825 116.264 263.639 115.007 264.441C113.75 265.242 113.122 265.776 113.122 267.112C113.122 268.447 112.493 272.988 112.179 274.591C111.865 276.193 111.551 276.727 110.608 276.193C109.666 275.659 108.095 275.659 105.267 275.659C102.439 275.659 97.7264 276.193 94.8987 275.926C92.071 275.659 91.1285 274.858 91.7566 273.522Z" fill="#217BF4"/>
<path d="M104.012 266.312C97.9792 267.594 94.7952 266.49 93.9573 265.777C95.7378 266.312 99.9694 266.745 103.383 265.777C106.211 264.975 110.191 265.065 111.552 265.51C110.086 265.51 106.525 265.67 104.012 266.312Z" fill="#3881F2"/>
<path d="M108.41 266.844C108.096 267.912 107.719 270.317 108.725 271.385C109.73 272.453 108.934 273.433 108.41 273.789M97.4136 269.248C97.6229 270.049 97.7905 272.079 96.7854 273.789L97.4136 269.248ZM101.812 267.378L101.498 273.254L101.812 267.378Z" stroke="#2068D9" stroke-width="1.07894"/>
<path d="M108.427 275.711C109.245 274.273 110.176 272.043 109.981 270.049C109.667 266.844 105.268 265.776 102.755 266.31C105.896 264.975 112.809 262.037 114.694 255.359C116.579 248.682 115.95 244.675 109.981 244.141C108.724 244.141 107.467 243.874 111.866 240.668C116.265 237.463 123.177 231.32 116.579 227.58C109.981 223.841 105.582 220.903 104.64 216.896C107.781 219.033 111.552 221.437 113.123 221.704C114.482 221.935 114.43 221.766 113.782 219.643C113.68 219.311 113.564 218.932 113.437 218.499C112.494 215.293 110.295 207.28 110.295 204.876C111.238 207.815 112.809 212.355 116.893 214.225C120.978 216.095 122.234 211.02 121.606 207.547C120.978 204.075 120.663 201.404 124.748 198.466C128.832 195.528 135.43 185.111 130.718 180.57C126.005 176.029 117.522 167.749 117.836 161.338C118.08 156.354 117.565 154.761 115.256 151.788C115.673 151.124 116.113 150.478 116.579 149.853C120.845 144.126 133.295 139.764 140.856 143.297C141.563 143.724 142.263 144.156 142.955 144.594C144.891 146.144 146.27 148.461 146.742 151.723C148.573 164.398 143.217 173.556 139.377 180.121C138.605 181.441 137.894 182.657 137.315 183.775C133.86 190.453 129.461 204.876 128.832 208.616C128.638 209.773 128.233 211.596 127.766 213.697C126.724 218.381 125.376 224.445 125.376 227.58C125.376 232.121 124.12 240.401 122.234 247.613C120.349 254.825 116.265 263.639 115.008 264.441C113.751 265.242 113.123 265.776 113.123 267.112C113.123 268.447 112.494 272.988 112.18 274.591C111.866 276.193 111.552 276.727 110.609 276.193C110.099 275.904 109.405 275.772 108.427 275.711Z" fill="#1771EA"/>
<path d="M132.087 197.076C130.441 202.068 129.152 206.717 128.833 208.615C128.638 209.772 128.233 211.595 127.766 213.696C126.725 218.38 125.377 224.444 125.377 227.579C125.377 228.997 125.255 230.778 125.028 232.778C123.363 229.512 120.687 225.916 117.208 225.177C111.768 224.02 115.04 224.065 117.443 224.098C117.817 224.103 118.169 224.108 118.465 224.108C120.664 224.108 121.606 223.039 119.093 221.703C117.082 220.635 114.066 214.847 112.809 212.087C114.171 214.847 118.15 220.368 123.178 220.368C124.748 220.368 126.005 219.032 125.063 216.361C124.225 213.988 126.86 203.813 132.087 197.076Z" fill="#2068D9"/>
<path d="M148.676 133.08L150.861 120.657L166.427 123.898C166.063 125.518 166.099 130.542 166.973 136.591C167.847 142.641 170.432 145.864 171.889 146.854L148.676 133.08Z" fill="#FEBE9D"/>
<path d="M150.996 120.657L166.245 123.888C165.978 125.099 165.931 128.214 166.284 132.238C155.4 130.945 151.557 123.978 150.996 120.657Z" fill="#F2AD8A"/>
<path d="M142.331 174.912C141.759 171.189 144.334 170.391 146.623 169.327C148.02 168.678 149.737 167.831 150.342 166.18C154.359 167.753 158.375 168.149 164.648 167.341C164.934 171.105 165.563 179.805 165.792 184.485C166.078 190.336 168.081 199.643 161.5 196.452C154.92 193.261 152.917 192.995 149.77 193.793C146.623 194.591 144.334 193.793 144.048 188.74C143.762 183.687 142.903 175.975 142.331 174.912Z" fill="#8CB9FF"/>
<path d="M149.219 193.941C148.343 192.063 147.021 187.828 147.44 182.911C148.008 176.254 149.711 170.929 151.698 175.988C153.287 180.035 153.685 184.775 153.685 186.638C154.821 186.017 157.148 183.39 157.375 177.851C157.659 170.928 157.943 171.194 158.795 175.188C159.646 179.182 159.93 179.715 160.782 175.188C160.896 174.584 160.989 174.036 161.074 173.54C161.613 170.385 161.797 169.303 164.582 168.827C164.542 168.275 164.505 167.776 164.472 167.342C158.249 168.151 154.264 167.755 150.279 166.18C149.678 167.833 147.975 168.681 146.588 169.331C146.399 169.42 146.208 169.507 146.017 169.594C143.914 170.55 141.81 171.506 142.331 174.923C142.898 175.988 143.75 183.71 144.034 188.769C144.302 193.558 146.352 194.529 149.219 193.941Z" fill="#7EAEFA"/>
<path opacity="0.5" d="M142.889 177.346C143.966 175.085 145.851 171.972 147.736 171.444C150.582 170.648 151.151 170.117 152.004 169.321C152.858 168.524 153.711 169.055 153.996 170.117C154.28 171.179 155.134 170.117 155.987 169.056C156.841 167.994 158.548 168.79 158.833 169.587C158.934 169.871 159.29 169.682 159.9 169.356C160.847 168.852 162.408 168.02 164.582 168.131C164.561 167.848 164.541 167.583 164.523 167.339C158.285 168.145 154.291 167.751 150.297 166.18C149.695 167.827 147.988 168.673 146.598 169.322C146.409 169.41 146.217 169.497 146.026 169.583C143.917 170.537 141.809 171.489 142.331 174.896C142.499 175.211 142.693 176.108 142.889 177.346Z" fill="#70A2F2"/>
<path d="M163.066 127.957C152.698 126.674 144.406 117.77 141.648 113.672C136.133 115.009 135.03 114.206 134.754 110.463C134.478 106.721 141.648 104.85 143.027 98.7013C144.405 92.5532 149.093 81.0593 162.329 75.7127C175.565 70.3666 186.87 87.742 187.146 93.0885C187.422 98.4347 186.598 111.155 183.286 118.483C179.779 126.24 176.026 129.561 163.066 127.957Z" fill="#FEBE9D"/>
<path d="M142.176 113.14C136.693 114.473 135.405 114.508 135.13 110.778C129.921 111.844 118.68 115.728 115.39 122.734C111.278 131.492 115.39 132.891 118.132 134.223C120.874 135.555 119.503 139.285 115.939 139.818C112.375 140.351 112.1 137.686 111.826 136.088C110.181 143.281 115.939 143.281 118.406 142.215C116.761 146.478 117.309 149.675 121.148 150.741C124.986 151.806 121.148 155.803 121.148 159.532C121.148 163.262 125.26 165.393 125.535 168.058C125.809 170.722 129.099 172.054 132.389 173.119C135.679 174.185 134.308 175.517 132.937 177.915C131.566 180.312 133.759 182.177 134.034 185.374C134.308 188.571 136.501 188.838 139.243 189.371C136.501 184.842 138.146 183.243 139.791 181.911L139.843 181.87C141.465 180.556 142.801 179.474 142.259 175.784C141.71 172.054 144.178 171.255 146.371 170.189C148.565 169.123 151.581 167.525 149.387 162.729C147.194 157.934 154.048 154.737 155.693 149.941C157.338 145.146 153.5 139.285 151.854 137.153C150.21 135.022 148.565 131.825 148.016 130.493C147.468 129.161 148.016 129.161 148.29 129.427C149.661 130.76 149.936 129.694 150.21 128.362C150.429 127.296 150.667 124.166 150.758 122.734C146.577 119.765 143.676 115.375 142.176 113.14Z" fill="#2B2B39"/>
<path d="M165.953 131.559V128.113C172.77 128.595 176.661 127.343 179.442 124.632C185.099 131.293 180.091 137.154 179.269 138.486C177.624 136.354 174.334 135.555 173.511 135.555C172.689 135.555 171.866 135.821 171.044 134.49C170.221 133.157 169.947 131.559 168.302 130.493C166.986 129.641 166.188 130.849 165.953 131.559Z" fill="#2B2B39"/>
<path d="M134.75 125.38C136.409 126.595 139.258 130.013 137.385 133.97" stroke="#151523" stroke-width="0.8"/>
<path d="M142.175 128.386C145.717 131.114 151.975 137.89 148.669 143.169C144.536 149.769 143.651 152.145 143.651 157.161" stroke="#151523" stroke-width="0.8"/>
<path d="M135.21 161.026C137.101 160.232 140.26 156.95 137.764 150.175C135.267 143.399 138.426 139.411 140.317 138.265" stroke="#151523" stroke-width="0.8"/>
<path d="M125.696 140.841C123.418 143.039 120.229 147.911 125.696 149.811C132.53 152.185 134.17 154.559 131.983 159.308" stroke="#151523" stroke-width="0.8"/>
<path d="M124.532 154.154C125.232 154.974 126.213 157.324 124.532 160.167" stroke="#151523" stroke-width="0.8"/>
<path d="M120.975 125.012C120.032 125.902 118.775 128.324 121.289 130.888C124.431 134.094 124.117 135.963 122.546 138.1" stroke="#151523" stroke-width="0.8"/>
<path opacity="0.5" d="M127.306 113.971C126.073 115.625 124.856 117.483 123.909 119.351C123.012 121.121 122.351 122.912 122.157 124.554C121.963 126.195 122.232 127.714 123.235 128.907C123.474 129.191 123.707 129.466 123.933 129.732C124.836 130.793 125.629 131.726 126.2 132.612C126.91 133.713 127.248 134.7 127.031 135.716C126.812 136.736 126.023 137.839 124.339 139.147C123.143 140.077 121.509 141.099 119.34 142.258C119.225 142.528 119.119 142.794 119.024 143.055C121.536 141.743 123.412 140.591 124.763 139.542C126.496 138.196 127.396 136.995 127.649 135.811C127.903 134.624 127.494 133.507 126.751 132.355C126.159 131.437 125.336 130.469 124.431 129.405L124.431 129.404C124.207 129.141 123.978 128.872 123.746 128.597C122.864 127.547 122.597 126.174 122.782 124.607C122.968 123.04 123.603 121.305 124.486 119.562C125.56 117.445 126.99 115.334 128.391 113.527C128.029 113.67 127.667 113.818 127.306 113.971Z" fill="#1C1C2A"/>
<path opacity="0.5" d="M144.195 116.293C143.651 118.107 143.237 120.558 143.393 123.18C143.593 126.544 144.733 130.208 147.763 133.161C151.462 136.765 152.769 139.312 152.769 141.512C152.769 143.722 151.456 145.663 149.659 148.087C147.85 150.527 146.785 152.931 146.926 155.826C147.049 158.347 148.086 161.209 150.281 164.764C150.171 164.153 149.954 163.473 149.607 162.713C149.492 162.462 149.402 162.215 149.335 161.972C148.14 159.603 147.563 157.596 147.476 155.801C147.342 153.069 148.339 150.783 150.105 148.401C151.883 146.002 153.319 143.923 153.319 141.512C153.319 139.09 151.876 136.411 148.151 132.782C145.241 129.946 144.136 126.42 143.942 123.149C143.8 120.754 144.147 118.505 144.625 116.783C144.477 116.618 144.334 116.454 144.195 116.293Z" fill="#1C1C2A"/>
<path opacity="0.5" d="M138.721 189.37C138.178 188.741 137.662 188.005 137.259 187.187C136.366 185.371 136.038 183.158 137.204 180.781C138.58 177.978 138.076 175.483 137.612 173.187C137.55 172.88 137.489 172.577 137.433 172.277C137.194 170.994 137.048 169.772 137.303 168.547C137.557 167.331 138.212 166.089 139.621 164.782C141.116 163.394 141.677 161.958 141.789 160.467C141.883 159.218 141.661 157.928 141.435 156.624C141.396 156.396 141.356 156.167 141.318 155.938C141.061 154.385 140.871 152.793 141.209 151.113C141.546 149.439 142.412 147.66 144.304 145.75L144.311 145.742L144.319 145.734C145.631 144.171 145.832 142.059 145.124 139.922C144.435 137.842 142.884 135.716 140.613 133.973C141.264 132.731 141.707 129.763 139.394 125.87C137.889 123.336 136.953 121.104 136.853 118.958C136.78 117.398 137.149 115.865 138.092 114.279C137.879 114.27 137.681 114.248 137.499 114.213C136.595 115.808 136.228 117.375 136.304 118.983C136.41 121.258 137.399 123.581 138.918 126.138C141.259 130.079 140.621 132.922 140.054 133.852C138.33 134.98 135.95 137.135 134.317 140C132.744 142.759 131.858 146.189 132.941 149.986C132.85 149.947 132.756 149.909 132.66 149.871C128.985 148.412 127.732 146.732 127.606 145.142C127.477 143.514 128.51 141.845 129.745 140.375C130.99 138.892 132.601 136.646 133.269 134.178C133.942 131.692 133.658 128.972 131.096 126.613C129.193 124.863 128.701 122.608 128.871 120.472C129.041 118.33 129.877 116.333 130.593 115.155L130.12 114.882C129.37 116.116 128.501 118.191 128.322 120.43C128.144 122.675 128.66 125.109 130.718 127.003C133.105 129.2 133.37 131.704 132.738 134.041C132.1 136.396 130.549 138.571 129.319 140.036C128.079 141.512 126.911 143.327 127.058 145.183C127.207 147.075 128.703 148.879 132.453 150.367C132.741 150.482 133.01 150.599 133.26 150.72C134.614 151.371 135.407 152.096 135.821 152.842C136.232 153.583 136.287 154.377 136.102 155.202C135.727 156.879 134.386 158.625 133.164 160.163L133.01 160.357C132.775 160.652 132.547 160.939 132.337 161.212C131.08 162.845 130.492 164.243 130.529 165.666C130.556 166.726 130.928 167.771 131.578 168.909C130.687 168.247 129.794 167.517 129.06 166.684C128.015 165.496 127.314 164.12 127.408 162.459C127.452 161.676 127.673 160.82 128.13 159.88C128.753 158.599 129.195 157.451 129.373 156.445C129.552 155.436 129.469 154.543 129.011 153.8C128.554 153.056 127.748 152.506 126.577 152.126C125.574 151.8 124.287 151.592 122.677 151.497C122.799 151.666 122.881 151.851 122.931 152.051C124.376 152.151 125.519 152.347 126.403 152.634C127.5 152.99 128.172 153.479 128.54 154.075C128.907 154.671 128.996 155.42 128.831 156.353C128.666 157.29 128.248 158.386 127.633 159.65C127.155 160.636 126.912 161.551 126.86 162.405C126.571 163.572 126.142 165.439 125.784 167.285C125.743 167.498 125.702 167.711 125.663 167.923C125.671 167.973 125.677 168.022 125.682 168.071C125.723 168.473 125.832 168.844 125.999 169.189C126.094 168.61 126.205 168 126.324 167.384C126.545 166.247 126.793 165.101 127.018 164.118C127.297 165.222 127.897 166.185 128.643 167.033C129.742 168.281 131.174 169.299 132.395 170.164L132.785 169.799C131.694 168.204 131.111 166.916 131.079 165.653C131.046 164.397 131.558 163.117 132.777 161.534C132.865 161.419 132.957 161.301 133.051 161.182C133.017 162.111 133.044 163.322 133.205 164.61C133.422 166.357 133.887 168.268 134.793 169.812C135.604 171.196 135.284 172.83 134.484 174.368C134.483 174.369 134.482 174.371 134.481 174.372C134.641 174.69 134.627 175.039 134.501 175.428C134.67 175.163 134.829 174.889 134.974 174.61C135.806 173.012 136.219 171.163 135.27 169.546C134.416 168.089 133.964 166.258 133.751 164.546C133.544 162.883 133.564 161.353 133.648 160.429C134.84 158.927 136.239 157.109 136.64 155.316C136.845 154.395 136.792 153.465 136.304 152.587C135.832 151.735 134.967 150.961 133.608 150.29C132.368 146.48 133.215 143.036 134.797 140.26C136.346 137.544 138.593 135.48 140.245 134.373C142.46 136.065 143.948 138.116 144.6 140.087C145.266 142.098 145.057 144.002 143.9 145.386C141.948 147.359 141.028 149.227 140.669 151.01C140.312 152.788 140.517 154.461 140.775 156.023C140.815 156.26 140.855 156.494 140.895 156.725C141.12 158.032 141.33 159.249 141.241 160.428C141.138 161.792 140.634 163.103 139.242 164.394C137.763 165.766 137.043 167.103 136.764 168.441C136.487 169.77 136.65 171.077 136.892 172.373C136.95 172.682 137.011 172.99 137.073 173.298C137.536 175.6 138.001 177.916 136.708 180.549C135.455 183.102 135.814 185.489 136.763 187.419C137.081 188.064 137.464 188.66 137.877 189.196C138.149 189.257 138.431 189.313 138.721 189.37Z" fill="#1C1C2A"/>
<path d="M115.712 122.865C118.432 121.032 121.318 119.657 122.037 121.204C123.403 124.145 126.135 122.274 126.954 120.135C127.774 117.997 128.047 118.531 129.413 121.739C129.998 123.112 130.382 122.428 130.91 121.489C131.614 120.235 132.573 118.529 134.604 120.669C136.315 122.472 137.9 120.675 139.389 118.987C140.988 117.172 142.477 115.484 143.892 118.531C144.813 120.512 145.485 122.644 146.118 124.653C146.738 126.62 147.32 128.467 148.062 129.937C147.914 129.232 148.315 129.273 148.536 129.49C149.902 130.827 150.176 129.757 150.449 128.421C150.668 127.352 150.904 124.211 150.995 122.775C146.829 119.795 143.669 115.383 142.174 113.14C136.711 114.478 135.697 114.521 135.423 110.778C130.233 111.848 119.032 115.744 115.754 122.775C115.74 122.804 115.726 122.835 115.712 122.865Z" fill="#1C1C2A"/>
<path d="M147.982 130.525C147.433 129.189 147.982 129.189 148.256 129.456C148.877 130.06 149.273 130.173 149.545 129.99C151.402 131.772 155.663 135.763 157.858 137.473C160.053 139.183 165.723 141.036 168.284 141.748C167.357 139.878 165.59 135.228 165.934 131.594C166.168 130.881 166.967 129.669 168.284 130.525C169.93 131.594 170.204 133.197 171.027 134.533C171.851 135.869 172.673 135.602 173.497 135.602C174.32 135.602 177.612 136.404 179.258 138.542C179.715 138.898 181.014 139.718 182.55 140.145C184.471 140.68 186.94 143.352 186.117 146.024C185.294 148.697 182.002 151.369 180.356 154.309C178.709 157.248 176.24 166.067 167.735 167.671C166.253 167.95 164.888 168.175 163.62 168.347C157.605 169.159 153.754 168.761 149.902 167.18C150.272 166.121 150.208 164.734 149.353 162.86C147.158 158.05 154.017 154.843 155.663 150.033C157.31 145.223 153.469 139.343 151.822 137.206C150.176 135.068 148.53 131.861 147.982 130.525Z" fill="#8CB9FF"/>
<path d="M160.281 138.692C161.838 140.857 164.872 143.88 168.652 144.238C174.265 144.771 175.067 139.713 174.533 137.317C172.127 139.181 167.85 140.778 168.117 137.051C168.154 136.532 168.197 136.039 168.237 135.57C168.427 133.355 168.573 131.666 167.915 130.278C166.752 129.674 166.043 130.791 165.827 131.462C165.492 135.082 167.214 139.714 168.117 141.577C166.29 141.057 162.838 139.928 160.281 138.692Z" fill="#7EAEFA"/>
<path d="M157.901 167.722C157.105 167.516 156.322 167.273 155.539 166.992C155.963 165.934 155.89 164.548 154.911 162.674C153.371 159.73 155.721 157.386 158.207 154.907C159.779 153.339 161.406 151.717 162.137 149.853C163.476 146.438 161.645 142.484 159.795 139.714C162.145 141.023 165.782 142.942 168.421 143.977C172.505 145.58 171.563 148.518 166.221 145.847C164.022 144.778 164.022 148.251 168.421 150.121C172.819 151.99 180.988 151.723 183.816 145.313C186.644 138.902 190.1 139.703 187.901 145.847C185.701 151.99 181.302 158.668 177.847 160.805C176.172 161.84 173.761 162.123 171.291 162.413C168.662 162.721 165.966 163.037 164.022 164.277C161.13 166.121 160.318 167.621 160.255 168.212C159.761 168.133 159.276 168.041 158.798 167.936L157.901 167.722Z" fill="#7EAEFA"/>
<path opacity="0.5" d="M149.86 166.18C149.989 165.239 149.799 164.078 149.116 162.622C147.738 159.687 149.841 157.35 152.066 154.879C153.473 153.316 154.929 151.698 155.582 149.841C155.68 149.564 155.758 149.284 155.82 149.001L158.956 151.971C160.924 153.835 167.672 154.1 171.045 153.302C168.796 154.634 165.985 154.899 160.643 154.1C155.301 153.301 153.614 155.698 156.707 157.295C159.8 158.893 168.796 156.496 171.889 154.366C169.089 158.946 163.754 159.599 159.849 160.077C159.44 160.127 159.047 160.175 158.675 160.225C157.303 160.411 155.795 160.273 154.447 160.15C151.929 159.92 149.972 159.741 150.522 161.823C151.127 164.118 150.418 165.583 149.86 166.18Z" fill="#70A2F2"/>
<path d="M153.014 86.2988C154.753 80.0976 160.077 79.973 162.522 80.6859C163.88 80.9411 162.794 77.746 167.412 77.2114C172.031 76.6768 175.019 79.6172 176.378 81.7555C177.736 83.8938 178.823 86.0321 180.996 87.9029C182.083 91.1103 185.614 94.5852 186.43 95.3869C186.43 96.1889 186.744 101.502 186.744 103.907C191.362 100.432 189.418 97.2581 190.505 94.3177C191.374 91.9657 190.686 90.4866 190.233 90.0411C190.324 88.7937 190.396 85.925 189.961 84.4283C189.418 82.5571 187.516 82.2901 186.701 82.2901C187.244 80.9534 186.701 79.6172 185.886 79.0822C185.071 78.5477 184.256 77.2114 183.169 75.0731C182.083 72.9348 177.736 69.4601 175.834 68.6582C173.933 67.8563 173.933 66.5199 173.389 65.9853C166.326 59.8377 160.077 62.5106 158.719 63.0452C157.36 63.5798 156.546 63.0452 156.002 62.778C145.407 56.3631 138.615 65.4508 136.714 68.1237C125.303 72.9349 121.228 79.0826 122.043 87.6358C122.858 96.1889 120.413 99.3964 118.511 101.268C116.61 103.138 117.153 105.01 118.783 107.148C121.771 111.424 116.61 111.959 114.708 113.028C112.806 114.097 114.165 117.037 113.35 118.374C112.534 119.71 112.806 122.383 114.98 124.521C118.24 118.374 127.477 115.701 132.638 114.632C137.8 113.563 142.69 106.346 146.494 103.138C150.297 99.9309 150.841 94.0502 153.014 86.2988Z" fill="#2B2B39"/>
<path opacity="0.5" d="M145.874 103.73C146.295 97.2474 147.558 89.5154 150.186 83.6638C151.803 80.0643 153.92 77.2151 156.637 75.7829C159.298 74.3802 162.588 74.3106 166.662 76.3318C166.61 76.7327 166.504 77.1124 166.361 77.4671C166.557 77.4137 166.766 77.3664 166.992 77.3261C167.108 76.9715 167.19 76.5957 167.225 76.2013C167.346 74.8583 166.928 73.3318 165.568 71.7337C164.105 70.0157 162.602 68.698 161.264 67.5252C160.853 67.1658 160.459 66.8199 160.086 66.4803C158.94 65.4377 157.995 64.4528 157.373 63.2996C157.108 63.2659 156.877 63.1928 156.672 63.1086C157.127 64.1073 157.795 64.9678 158.595 65.7953C157.293 65.28 155.673 64.8089 153.933 64.5809C150.476 64.128 146.491 64.6297 143.598 67.718C140.565 70.9567 138.026 75.597 135.975 80.3815C133.922 85.17 132.35 90.1228 131.257 94.0014C130.172 97.8481 128.344 101.754 125.915 104.792C124.107 107.052 121.979 108.818 119.588 109.735C119.555 109.971 119.479 110.186 119.37 110.384C122.052 109.472 124.398 107.556 126.345 105.121C128.828 102.016 130.683 98.0423 131.782 94.1435C132.872 90.2769 134.438 85.3475 136.479 80.5881C138.521 75.8239 141.031 71.2502 144.001 68.0789C146.379 65.5398 149.555 64.8359 152.561 64.9909C149.643 66.0894 144.708 68.9555 141.114 74.4312C138.56 78.3221 137.06 83.983 135.569 89.6106L135.451 90.0572C133.912 95.861 132.353 101.58 129.658 105.405C127.513 108.448 124.517 110.312 121.631 111.404C119.191 112.328 116.841 112.695 115.177 112.761C114.964 112.85 114.769 112.941 114.6 113.035C114.499 113.092 114.406 113.154 114.322 113.221L114.32 113.302C116.038 113.347 118.871 113.021 121.828 111.902C124.787 110.782 127.885 108.862 130.107 105.709C132.869 101.789 134.448 95.9665 135.979 90.1913L136.083 89.7992C137.586 84.1267 139.067 78.5374 141.573 74.7198C145.651 68.5068 151.485 65.7386 153.913 65.1173C155.714 65.3587 157.379 65.8672 158.673 66.4048C155.372 66.5944 149.986 68.3518 147.637 74.4817C146.835 76.5754 145.758 80.0034 144.492 84.032L144.396 84.3373C143.086 88.5024 141.578 93.2893 139.96 97.9257C138.341 102.563 136.613 107.041 134.868 110.591C134.103 112.146 133.338 113.518 132.578 114.645C132.589 114.642 132.6 114.64 132.611 114.638C132.861 114.586 133.111 114.52 133.359 114.441C134.029 113.392 134.697 112.171 135.36 110.822C137.119 107.244 138.855 102.742 140.476 98.0984C142.098 93.4533 143.609 88.6588 144.917 84.4945L145.007 84.2079C146.278 80.1638 147.352 76.7474 148.148 74.6692C150.683 68.0547 156.904 66.76 159.785 66.9359C160.149 67.2654 160.528 67.5975 160.918 67.9393C162.251 69.1082 163.713 70.3906 165.148 72.0757C166.287 73.4126 166.697 74.6601 166.699 75.7531C162.598 73.776 159.184 73.8337 156.378 75.3128C153.505 76.827 151.324 79.8036 149.687 83.4485C146.943 89.5548 145.677 97.6463 145.293 104.281C145.489 104.09 145.682 103.906 145.874 103.73Z" fill="#1C1C2A"/>
<path opacity="0.5" d="M119.197 107.982C122.35 106.853 124.199 104.118 125.432 100.773C126.19 98.7162 126.721 96.4131 127.182 94.081C127.366 93.1531 127.538 92.2233 127.708 91.3018C127.968 89.8979 128.224 88.5135 128.512 87.1833C129.86 80.9607 133.884 72.7798 136.36 68.3113C136.083 68.4293 135.812 68.548 135.544 68.6676C133.044 73.2617 129.283 81.0522 127.978 87.0726C127.689 88.4073 127.429 89.8092 127.168 91.2214C126.998 92.1417 126.827 93.0663 126.647 93.9795C126.187 96.3048 125.661 98.5753 124.918 100.592C123.701 103.895 121.92 106.472 118.926 107.509C119.029 107.672 119.119 107.83 119.197 107.982Z" fill="#1C1C2A"/>
<path d="M186.453 96.1045C186.849 96.1355 187.249 96.1558 187.646 96.167C188.45 96.1897 189.256 96.1746 190.029 96.1348C190.05 95.954 190.075 95.7745 190.105 95.5962C189.315 95.6392 188.487 95.6567 187.662 95.6336C187.248 95.6221 186.837 95.6002 186.434 95.5671C186.437 95.7037 186.444 95.8856 186.453 96.1045Z" fill="#3A0A44"/>
<path d="M181.221 88.4973C184.737 90.2184 188.18 90.6113 190.456 90.5265C190.355 90.3354 190.246 90.1909 190.148 90.0946L190.151 90.0564L190.155 90.0011C187.785 90.0445 184.214 89.5569 180.653 87.5989C180.764 87.7012 180.878 87.8027 180.994 87.903C181.061 88.1004 181.137 88.2986 181.221 88.4973Z" fill="#3A0A44"/>
<path opacity="0.5" d="M162.601 69.1014C163.824 67.7242 167.624 65.6896 173.866 66.9273C173.965 67.1256 174.081 67.3374 174.235 67.5504C167.855 66.1377 164.104 68.2186 163.009 69.4529L162.601 69.1014Z" fill="#1C1C2A"/>
<path opacity="0.5" d="M184.681 82.3678C185.367 82.4939 186.06 82.3996 186.752 81.9824C186.72 82.1058 186.679 82.2304 186.628 82.3546C186.765 82.3546 186.933 82.3622 187.121 82.3841C186.298 82.9079 185.444 83.0508 184.582 82.8924C183.369 82.6695 182.188 81.8575 181.093 80.8118C179.385 79.181 177.8 76.8919 176.551 75.0883C176.199 74.5788 175.873 74.1084 175.578 73.7024C174.584 72.3297 172.912 72.0556 171.136 72.3232C169.365 72.59 167.571 73.3875 166.463 74.0431L166.184 73.5853C167.332 72.9063 169.193 72.0758 171.054 71.7955C172.91 71.516 174.848 71.7756 176.019 73.3923C176.326 73.8158 176.661 74.2994 177.021 74.8185C178.268 76.6184 179.807 78.8403 181.47 80.4281C182.54 81.4507 183.627 82.1735 184.681 82.3678Z" fill="#1C1C2A"/>
<path d="M166.749 69.9523C168.381 68.6968 172.464 67.208 175.729 71.2976C178.995 75.3875 182.17 78.0245 183.35 78.8317M170.559 75.3341C173.008 75.9618 178.288 78.0782 179.812 81.5221C181.717 85.8269 185.255 88.5177 187.976 88.2486M185.799 90.939C186.253 91.6567 187.541 92.8763 189.065 92.0153M165.388 64.5717C166.567 64.3924 169.252 64.195 170.559 64.8408" stroke="#151523" stroke-width="0.8"/>
<path d="M160.281 69.8365C156.666 69.7474 148.679 72.403 145.643 83.7382M144.829 74.3814C142.751 78.213 138.215 87.481 136.697 93.8971C134.799 101.917 133.444 112.077 119.89 114.215M122.601 100.581C123.866 98.6203 126.234 93.5229 125.583 88.8177C124.77 82.9362 125.854 77.3222 130.733 74.1139M152.962 63.1529C148.173 62.7965 138.053 64.4362 135.884 73.8465C133.715 83.257 129.017 95.2337 126.938 100.046" stroke="#151523" stroke-width="0.8"/>
</g>
<path d="M404.891 78.1301H328.037C324.642 78.1301 321.89 80.8818 321.89 84.2767V101.699C321.89 105.094 324.642 107.846 328.037 107.846H390.668L409.839 114.077L404.567 107.846H404.891C408.285 107.846 411.037 105.094 411.037 101.699V84.2767C411.037 80.8818 408.285 78.1301 404.891 78.1301Z" fill="#FFBE56"/>
<path fill-rule="evenodd" clip-rule="evenodd" d="M342.499 95.3847C344.087 95.3847 345.375 94.0971 345.375 92.5089C345.375 90.9207 344.087 89.6331 342.499 89.6331C340.911 89.6331 339.624 90.9207 339.624 92.5089C339.624 94.0971 340.911 95.3847 342.499 95.3847ZM358.795 95.3847C360.383 95.3847 361.671 94.0971 361.671 92.5089C361.671 90.9207 360.383 89.6331 358.795 89.6331C357.207 89.6331 355.919 90.9207 355.919 92.5089C355.919 94.0971 357.207 95.3847 358.795 95.3847ZM377.487 92.5089C377.487 94.0971 376.2 95.3847 374.612 95.3847C373.023 95.3847 371.736 94.0971 371.736 92.5089C371.736 90.9207 373.023 89.6331 374.612 89.6331C376.2 89.6331 377.487 90.9207 377.487 92.5089ZM390.428 95.3847C392.016 95.3847 393.304 94.0971 393.304 92.5089C393.304 90.9207 392.016 89.6331 390.428 89.6331C388.84 89.6331 387.552 90.9207 387.552 92.5089C387.552 94.0971 388.84 95.3847 390.428 95.3847Z" fill="white"/>
<path d="M289.489 453.301C289.489 505.097 331.478 547.086 383.273 547.086C435.07 547.086 477.061 505.097 477.061 453.301C477.061 401.504 435.07 359.515 383.273 359.515C331.478 359.515 289.489 401.504 289.489 453.301Z" fill="white"/>
<path d="M383.273 546.086C332.03 546.086 290.489 504.545 290.489 453.301C290.489 402.057 332.03 360.515 383.273 360.515C434.517 360.515 476.061 402.057 476.061 453.301C476.061 504.545 434.517 546.086 383.273 546.086Z" stroke="#2773D9" stroke-opacity="0.6" stroke-width="2"/>
<path d="M401.127 391.696C391.607 411.435 375.262 399.663 371.508 391.695C378.956 391.693 376.568 376.597 375.499 369.049H397.498C397.083 380.675 399.743 388.992 401.127 391.696Z" fill="#FCC4AC"/>
<path d="M401.127 391.696C391.607 411.435 375.262 399.663 371.508 391.695C378.956 391.693 376.568 376.597 375.499 369.049H397.498C397.083 380.675 399.743 388.992 401.127 391.696Z" fill="url(#paint1_linear_1_347)"/>
<path d="M351.07 401.418C350.957 433.686 342.144 519.024 340.837 532.305C340.148 539.331 357.295 545.472 376.497 546.845C401.442 548.63 422.307 540.217 426.809 536.381C428.05 498.028 430.016 414.309 430.016 407.195C420.685 400.547 407.322 394.323 401.127 391.697C388.833 399.315 380.042 396.713 374.269 390.818C365.592 392.439 355.121 398.948 351.07 401.418Z" fill="#307FE2"/>
<path d="M351.07 401.418C350.957 433.686 342.144 519.024 340.837 532.305C340.148 539.331 357.295 545.472 376.497 546.845C401.442 548.63 422.307 540.217 426.809 536.381C428.05 498.028 430.016 414.309 430.016 407.195C420.685 400.547 407.322 394.323 401.127 391.697C388.833 399.315 380.042 396.713 374.269 390.818C365.592 392.439 355.121 398.948 351.07 401.418Z" fill="url(#paint2_linear_1_347)"/>
<path d="M351.07 401.418C350.957 433.686 342.144 519.024 340.837 532.305C340.148 539.331 357.295 545.472 376.497 546.845C401.442 548.63 422.307 540.217 426.809 536.381C428.05 498.028 430.016 414.309 430.016 407.195C420.685 400.547 407.322 394.323 401.127 391.697C388.833 399.315 380.042 396.713 374.269 390.818C365.592 392.439 355.121 398.948 351.07 401.418Z" fill="#2773D9"/>
<path opacity="0.35" d="M373.044 391.075C373.193 391.04 373.341 391.008 373.484 390.976C374.321 396.351 375.147 403.563 375.432 410.999C375.788 420.35 375.283 430.087 372.83 436.972C369.807 445.477 369.807 455.806 370.567 465.422C370.888 469.533 371.351 473.507 371.779 477.149V477.149V477.163C371.85 477.773 371.922 478.374 371.987 478.964C372.462 483.077 372.848 486.699 372.848 489.493C372.848 490.1 372.848 490.695 372.848 491.28C372.872 496.044 372.89 500.171 371.565 505.061C370.086 510.552 366.921 516.99 360.221 526.398C359.39 527.577 359.194 529.24 359.473 531.204C359.746 533.163 360.482 535.383 361.468 537.64C362.579 540.191 363.998 542.774 365.4 545.057C365.204 545.018 365.002 544.978 364.806 544.938C363.464 542.729 362.122 540.261 361.058 537.819C360.067 535.544 359.312 533.281 359.027 531.266C358.748 529.256 358.926 527.454 359.853 526.139V526.138C366.54 516.752 369.67 510.363 371.132 504.944C372.438 500.116 372.42 496.049 372.403 491.281V491.279C372.403 490.695 372.397 490.101 372.397 489.493C372.397 486.729 372.017 483.134 371.541 479.016C371.476 478.423 371.405 477.82 371.334 477.207V477.202V477.202C370.906 473.561 370.443 469.577 370.116 465.457C369.356 455.831 369.356 445.421 372.409 436.821C374.826 430.021 375.337 420.357 374.98 411.016C374.701 403.612 373.882 396.43 373.044 391.075Z" fill="white"/>
<path opacity="0.35" d="M344.415 537.938C344.629 538.085 344.849 538.231 345.08 538.376C344.201 536.289 343.548 534.247 343.293 532.43C343.019 530.466 343.209 528.803 344.041 527.624C350.74 518.217 353.906 511.778 355.391 506.287C356.709 501.398 356.692 497.27 356.674 492.506V492.496C356.668 491.915 356.668 491.323 356.668 490.719C356.668 487.925 356.288 484.304 355.813 480.191C355.741 479.6 355.67 478.999 355.599 478.389V478.375V478.375C355.171 474.733 354.708 470.759 354.387 466.648C353.627 457.032 353.627 446.703 356.656 438.198C359.103 431.313 359.608 421.576 359.252 412.226C359.05 406.96 358.58 401.807 358.022 397.339C357.88 397.416 357.737 397.494 357.6 397.572C358.147 401.987 358.604 407.06 358.8 412.242C359.156 421.583 358.646 431.247 356.228 438.047C353.176 446.647 353.176 457.057 353.936 466.683C354.263 470.804 354.726 474.787 355.153 478.428V478.428V478.433C355.225 479.046 355.296 479.649 355.367 480.242C355.842 484.361 356.217 487.955 356.217 490.719C356.217 491.326 356.222 491.92 356.222 492.502V492.507C356.24 497.275 356.258 501.342 354.957 506.17C353.49 511.589 350.36 517.978 343.673 527.364V527.365C342.746 528.68 342.568 530.482 342.847 532.492C343.085 534.18 343.655 536.041 344.415 537.938Z" fill="white"/>
<path opacity="0.35" d="M381.567 547.444C380.444 545.522 379.351 543.448 378.454 541.391C377.462 539.117 376.708 536.854 376.429 534.839C376.144 532.828 376.322 531.027 377.249 529.712V529.711C383.936 520.325 387.072 513.935 388.533 508.517C389.834 503.689 389.816 499.621 389.798 494.853V494.851C389.798 494.268 389.792 493.674 389.792 493.066C389.792 490.302 389.418 486.707 388.943 482.588C388.872 481.994 388.801 481.389 388.729 480.775V480.775C388.308 477.134 387.838 473.15 387.518 469.03C386.758 459.403 386.752 448.993 389.81 440.394C392.228 433.594 392.732 423.93 392.382 414.589C392.121 407.813 391.414 401.223 390.654 396.048C390.802 396.02 390.951 395.991 391.093 395.96C391.853 401.152 392.572 407.768 392.827 414.572C393.184 423.923 392.679 433.66 390.232 440.544C387.209 449.049 387.203 459.379 387.963 468.995C388.29 473.106 388.753 477.08 389.175 480.721V480.721C389.246 481.336 389.317 481.942 389.389 482.537C389.864 486.65 390.244 490.271 390.244 493.066C390.244 493.672 390.244 494.268 390.25 494.853C390.268 499.616 390.285 503.744 388.967 508.634C387.482 514.124 384.322 520.563 377.617 529.97C376.785 531.149 376.595 532.813 376.868 534.776C377.148 536.735 377.884 538.956 378.864 541.213C379.797 543.352 380.949 545.514 382.119 547.502C381.935 547.483 381.751 547.464 381.567 547.444Z" fill="white"/>
<path opacity="0.35" d="M400.145 548.616C398.779 546.38 397.412 543.872 396.332 541.391C395.34 539.116 394.585 536.853 394.3 534.838C394.021 532.828 394.199 531.026 395.126 529.711V529.711C401.814 520.324 404.944 513.935 406.411 508.516C407.711 503.688 407.693 499.621 407.676 494.853C407.676 494.268 407.67 493.674 407.67 493.066C407.67 490.301 407.296 486.706 406.82 482.588C406.749 481.994 406.678 481.39 406.607 480.775V480.774C406.185 477.133 405.716 473.15 405.395 469.03C404.629 459.403 404.629 448.993 407.688 440.393C410.105 433.594 410.61 423.929 410.259 414.589C409.98 407.329 409.184 400.283 408.371 394.962C408.531 395.039 408.691 395.117 408.858 395.195C409.659 400.495 410.431 407.429 410.705 414.571C411.061 423.923 410.556 433.659 408.109 440.544C405.086 449.049 405.08 459.378 405.84 468.994C406.167 473.106 406.63 477.08 407.052 480.721V480.729C407.123 481.341 407.195 481.944 407.266 482.536C407.741 486.649 408.121 490.271 408.121 493.066C408.121 493.672 408.121 494.266 408.127 494.85V494.852C408.145 499.616 408.163 503.743 406.844 508.633C405.359 514.124 402.2 520.563 395.494 529.97C394.663 531.149 394.472 532.812 394.746 534.776C395.025 536.735 395.761 538.955 396.741 541.212C397.852 543.761 399.271 546.343 400.673 548.625C400.495 548.622 400.323 548.619 400.145 548.616Z" fill="white"/>
<path opacity="0.35" d="M418.284 547.718C417.108 545.72 415.95 543.545 415.012 541.391C414.02 539.116 413.266 536.853 412.987 534.838C412.701 532.828 412.886 531.026 413.806 529.711L413.812 529.711C420.5 520.324 423.63 513.935 425.091 508.516C426.392 503.688 426.38 499.621 426.362 494.853C426.356 494.268 426.356 493.674 426.356 493.066C426.356 490.301 425.976 486.706 425.501 482.588C425.429 481.995 425.364 481.391 425.293 480.778V480.775C424.865 477.133 424.402 473.15 424.075 469.03C423.315 459.403 423.309 448.993 426.368 440.393C428.785 433.594 429.296 423.929 428.94 414.589C428.827 411.682 428.637 408.81 428.387 406.069C428.554 406.177 428.708 406.286 428.868 406.395C429.1 409.032 429.284 411.786 429.385 414.571C429.741 423.923 429.237 433.659 426.79 440.543C423.766 449.049 423.76 459.378 424.521 468.994C424.847 473.106 425.311 477.08 425.738 480.721C425.81 481.336 425.875 481.941 425.946 482.536C426.421 486.649 426.801 490.271 426.801 493.066C426.801 493.672 426.807 494.267 426.807 494.852C426.825 499.616 426.843 503.743 425.524 508.633C424.04 514.123 420.88 520.563 414.174 529.97C413.349 531.149 413.153 532.812 413.432 534.776C413.705 536.735 414.442 538.955 415.428 541.212C416.378 543.401 417.56 545.615 418.76 547.641C418.605 547.667 418.445 547.693 418.284 547.718Z" fill="white"/>
<path d="M362.159 337.315C361.862 344.075 362.159 360.593 362.159 372.692C362.159 393.144 392.812 377.286 397.498 369.048C406.728 352.823 396.524 338.191 394.576 337.315H362.159Z" fill="url(#paint3_linear_1_347)"/>
<path d="M362.159 337.315C361.862 344.075 362.159 360.593 362.159 372.692C362.159 393.144 392.812 377.286 397.498 369.048C406.728 352.823 396.524 338.191 394.576 337.315H362.159Z" fill="#FCC4AC"/>
<path d="M397.985 331.353C404.684 330.081 403.704 335.506 403.318 336.389C419.325 340.799 399.867 373.132 397.48 373.805L397.462 367.772C397.438 365.367 402.142 362.917 399.57 358.692C396.155 353.083 395.413 364.105 395.413 364.105C392.99 362.829 392.111 353.682 394.367 348.507C386.444 352.002 381.248 345.491 380.244 343.631C374.655 346.88 366.09 345.575 363.334 342.9C362.895 344.392 362.022 347.171 362.022 352.036C355.631 348.595 352.335 335.891 355.714 337.05C355.281 311.752 377.607 320.848 380.244 323.854C382.875 326.861 383.499 326.019 383.843 325.794C393.251 321.201 397.824 325.752 396.945 328.652C396.06 331.551 397.723 331.412 397.985 331.353Z" fill="#6E000E"/>
<path d="M265.676 444.481C260.887 444.906 256.726 442.048 257.658 441.725C270.119 437.401 286.872 442.787 296.556 445.758C299.955 452.626 294.314 460.238 291.069 463.185C289.434 461.534 286.051 459.398 283.833 459.398C272.561 458.778 261.712 474.952 250.688 466.901C241.869 460.46 257.006 449.27 265.676 444.481Z" fill="#F4B88E"/>
<path d="M265.676 444.481C260.887 444.906 256.726 442.048 257.658 441.725C270.119 437.401 286.872 442.787 296.556 445.758C299.955 452.626 294.314 460.238 291.069 463.185C289.434 461.534 286.051 459.398 283.833 459.398C272.561 458.778 261.712 474.952 250.688 466.901C241.869 460.46 257.006 449.27 265.676 444.481Z" fill="#FCC4AC"/>
<path d="M351.069 401.413C352.239 423.048 348.693 460.312 345.997 479.274C343.146 486.42 282.471 464.17 284.083 459.868C285.696 455.566 289.734 449.261 291.728 444.197C293.096 440.723 328.019 457.09 329.31 451.219C330.602 445.348 331.596 412.355 351.069 401.413Z" fill="#307FE2"/>
<path d="M351.069 401.413C352.239 423.048 348.693 460.312 345.997 479.274C343.146 486.42 282.471 464.17 284.083 459.868C285.696 455.566 289.734 449.261 291.728 444.197C293.096 440.723 328.019 457.09 329.31 451.219C330.602 445.348 331.596 412.355 351.069 401.413Z" fill="url(#paint4_linear_1_347)"/>
<path d="M351.069 401.413C352.239 423.048 348.693 460.312 345.997 479.274C343.146 486.42 282.471 464.17 284.083 459.868C285.696 455.566 289.734 449.261 291.728 444.197C293.096 440.723 328.019 457.09 329.31 451.219C330.602 445.348 331.596 412.355 351.069 401.413Z" fill="#2773D9"/>
<path opacity="0.35" fill-rule="evenodd" clip-rule="evenodd" d="M348.167 403.07C343.789 414.859 342.572 431.801 344.55 444.65C345.536 451.058 346.064 456.686 345.215 461.294C344.371 465.885 342.162 469.456 337.658 471.774C335.99 472.633 334.448 472.526 332.823 471.933C331.614 471.492 330.381 470.79 329.025 470.019C328.537 469.741 328.032 469.454 327.507 469.167C323.561 467.009 318.62 464.951 311.243 467.221C305.493 468.991 299.784 467.15 295.233 464.29C290.676 461.426 287.328 457.571 286.301 455.394L285.895 455.586C286.968 457.862 290.388 461.775 294.994 464.67C299.604 467.567 305.452 469.473 311.375 467.651C318.589 465.431 323.398 467.432 327.291 469.561C327.797 469.837 328.291 470.118 328.773 470.392C330.14 471.17 331.423 471.899 332.669 472.355C334.376 472.978 336.055 473.105 337.864 472.174C342.512 469.782 344.793 466.082 345.654 461.375C346.522 456.686 345.975 450.99 344.989 444.581C343.023 431.796 344.241 414.933 348.588 403.226L348.167 403.07ZM338.863 416.146C339.006 415.388 339.138 414.689 339.252 414.061L338.811 413.98C338.697 414.605 338.566 415.302 338.423 416.059C337.651 420.151 336.544 426.02 335.963 432.024C335.275 439.127 335.317 446.477 337.557 451.314C340.19 456.996 339.125 460.924 336.752 462.863C334.363 464.815 330.56 464.832 327.535 462.513C325.898 461.258 323.298 459.722 319.919 459.268C316.535 458.814 312.392 459.448 307.68 462.503C306.476 463.284 304.58 463.42 302.415 463C300.261 462.583 297.884 461.625 295.754 460.282C293.624 458.938 291.756 457.217 290.605 455.282C289.456 453.352 289.025 451.217 289.744 449.02L289.317 448.88C288.549 451.226 289.019 453.496 290.22 455.512C291.417 457.524 293.344 459.292 295.515 460.661C297.687 462.032 300.115 463.012 302.33 463.441C304.535 463.867 306.574 463.756 307.924 462.88C312.552 459.879 316.588 459.273 319.859 459.713C323.135 460.153 325.664 461.644 327.262 462.87C330.426 465.295 334.462 465.313 337.036 463.211C339.625 461.095 340.647 456.915 337.965 451.125C335.78 446.409 335.723 439.17 336.41 432.067C336.989 426.085 338.091 420.239 338.863 416.146Z" fill="white"/>
<path d="M291.728 444.197C289.734 449.262 285.696 455.566 284.083 459.868C283.807 460.605 285.358 461.868 288.132 463.42C292.586 460.122 296.437 449.501 297.805 444.603C294.42 443.687 292.064 443.345 291.728 444.197Z" fill="#105CC1"/>
<path d="M416.989 549.889C419.103 548.908 426.237 534.698 430.014 524.816L421.45 517.952C409.405 521.995 404.415 534.047 407.439 533.551C410.462 533.054 410.741 534.688 408.139 538.118C398.144 551.276 414.079 551.243 416.989 549.889Z" fill="#FCC4AC"/>
<path d="M455.303 476.191C460.631 458.628 443.312 417.833 430.014 407.196C430.014 411.539 429.182 431.639 428.731 458.326C436.363 472.001 417.547 513.601 415.789 517.11C414.025 520.619 429.396 533.735 431.908 528.66C434.421 523.584 449.311 495.939 455.303 476.191Z" fill="#307FE2"/>
<path d="M455.303 476.191C460.631 458.628 443.312 417.833 430.014 407.196C430.014 411.539 429.182 431.639 428.731 458.326C436.363 472.001 417.547 513.601 415.789 517.11C414.025 520.619 429.396 533.735 431.908 528.66C434.421 523.584 449.311 495.939 455.303 476.191Z" fill="url(#paint5_linear_1_347)"/>
<path d="M455.303 476.191C460.631 458.628 443.312 417.833 430.014 407.196C430.014 411.539 429.182 431.639 428.731 458.326C436.363 472.001 417.547 513.601 415.789 517.11C414.025 520.619 429.396 533.735 431.908 528.66C434.421 523.584 449.311 495.939 455.303 476.191Z" fill="#2773D9"/>
<path opacity="0.35" fill-rule="evenodd" clip-rule="evenodd" d="M431.906 418.841C431.187 417.952 430.528 417.137 429.958 416.41L429.601 416.687C430.177 417.422 430.848 418.244 431.573 419.139C433.907 422.019 436.859 425.654 439.354 429.586C442.632 434.746 445.091 440.359 444.402 445.387C443.951 448.632 444.657 452.02 445.81 455.402C446.606 457.745 447.615 460.103 448.607 462.419C449.047 463.441 449.486 464.455 449.896 465.455C451.244 468.735 452.337 471.875 452.515 474.763C452.687 477.638 451.951 480.258 449.629 482.518C445.162 486.876 444.242 490.82 443.357 494.583C443.244 495.074 443.131 495.562 443.006 496.048C442.484 498.147 441.83 500.199 440.423 502.275C439.015 504.35 436.847 506.463 433.278 508.665C431.888 509.521 430.629 511.132 429.554 513.056C428.473 514.986 427.558 517.254 426.875 519.455C426.186 521.655 425.723 523.796 425.545 525.472C425.455 526.309 425.432 527.039 425.497 527.606C425.515 527.784 425.545 527.95 425.586 528.1C423.977 527.184 422.284 525.929 420.769 524.575C419.95 520.855 420.324 516.393 421.732 512.467C423.145 508.513 425.58 505.141 428.829 503.603C431.846 502.177 433.438 500.381 434.293 498.336C435.137 496.306 435.244 494.049 435.321 491.731C435.327 491.636 435.327 491.542 435.333 491.447C435.404 489.206 435.481 486.903 436.17 484.617C436.883 482.242 438.255 479.879 440.981 477.643C443.689 475.424 444.604 473.174 444.432 470.89C444.271 468.63 443.048 466.378 441.599 464.142C441.141 463.436 440.66 462.733 440.185 462.029C439.134 460.486 438.077 458.941 437.263 457.375C436.075 455.101 435.422 452.832 435.998 450.535C438.938 438.815 431.799 431.248 429.554 429.162L429.245 429.491C431.46 431.546 438.439 438.953 435.558 450.426C434.947 452.879 435.659 455.268 436.865 457.582C437.691 459.173 438.771 460.754 439.829 462.309C440.31 463.007 440.779 463.701 441.224 464.387C442.674 466.62 443.832 468.788 443.986 470.922C444.141 473.032 443.321 475.149 440.702 477.295C437.898 479.589 436.479 482.029 435.742 484.488C435.036 486.831 434.958 489.187 434.881 491.416C434.881 491.516 434.875 491.616 434.875 491.716C434.792 494.045 434.685 496.221 433.877 498.164C433.076 500.093 431.567 501.812 428.639 503.198C425.242 504.805 422.741 508.299 421.31 512.316C419.873 516.335 419.481 520.916 420.348 524.743L420.365 524.813L420.419 524.861C422.177 526.441 424.185 527.897 426.038 528.859L426.275 528.477C426.21 528.433 426.139 528.344 426.079 528.184C426.02 528.026 425.972 527.817 425.943 527.556C425.883 527.035 425.901 526.341 425.99 525.52C426.162 523.88 426.62 521.768 427.303 519.589C427.98 517.409 428.883 515.171 429.946 513.276C431.009 511.374 432.22 509.843 433.515 509.047C437.12 506.82 439.342 504.666 440.797 502.527C442.246 500.387 442.917 498.276 443.446 496.157C443.565 495.666 443.683 495.175 443.796 494.682C444.675 490.929 445.572 487.103 449.943 482.839C452.373 480.473 453.139 477.719 452.961 474.736C452.782 471.767 451.66 468.567 450.312 465.285C449.896 464.27 449.456 463.249 449.011 462.222C448.025 459.915 447.021 457.584 446.231 455.257C445.091 451.901 444.408 448.592 444.842 445.448C445.56 440.251 443.018 434.519 439.734 429.346C437.221 425.388 434.246 421.723 431.906 418.841Z" fill="white"/>
<path d="M424.188 496.336C428.916 482.689 433.044 466.052 428.732 458.327C440.314 466.447 431.517 484.616 424.188 496.336Z" fill="#105CC1"/>
<path d="M415.789 517.11C414.025 520.62 429.396 533.735 431.908 528.66C432.104 528.269 432.372 527.744 432.698 527.099C429.016 526.276 420.725 522.612 416.983 514.534C416.407 515.821 415.985 516.712 415.789 517.11Z" fill="#307FE2"/>
<path d="M415.789 517.11C414.025 520.62 429.396 533.735 431.908 528.66C432.104 528.269 432.372 527.744 432.698 527.099C429.016 526.276 420.725 522.612 416.983 514.534C416.407 515.821 415.985 516.712 415.789 517.11Z" fill="url(#paint6_linear_1_347)"/>
<path d="M415.789 517.11C414.025 520.62 429.396 533.735 431.908 528.66C432.104 528.269 432.372 527.744 432.698 527.099C429.016 526.276 420.725 522.612 416.983 514.534C416.407 515.821 415.985 516.712 415.789 517.11Z" fill="#105CC1"/>
<path d="M306.638 355.029H229.784C226.389 355.029 223.637 357.781 223.637 361.175V378.598C223.637 381.992 226.389 384.744 229.784 384.744H292.415L311.586 390.975L306.314 384.744H306.638C310.032 384.744 312.784 381.992 312.784 378.598V361.175C312.784 357.781 310.032 355.029 306.638 355.029Z" fill="#8BBAFA"/>
<path fill-rule="evenodd" clip-rule="evenodd" d="M244.246 372.283C245.834 372.283 247.122 370.996 247.122 369.408C247.122 367.819 245.834 366.532 244.246 366.532C242.658 366.532 241.371 367.819 241.371 369.408C241.371 370.996 242.658 372.283 244.246 372.283ZM260.542 372.283C262.13 372.283 263.418 370.996 263.418 369.408C263.418 367.819 262.13 366.532 260.542 366.532C258.954 366.532 257.666 367.819 257.666 369.408C257.666 370.996 258.954 372.283 260.542 372.283ZM279.234 369.408C279.234 370.996 277.947 372.283 276.358 372.283C274.77 372.283 273.483 370.996 273.483 369.408C273.483 367.819 274.77 366.532 276.358 366.532C277.947 366.532 279.234 367.819 279.234 369.408ZM292.175 372.283C293.763 372.283 295.051 370.996 295.051 369.408C295.051 367.819 293.763 366.532 292.175 366.532C290.587 366.532 289.299 367.819 289.299 369.408C289.299 370.996 290.587 372.283 292.175 372.283Z" fill="white"/>
<defs>
<filter id="filter0_d_1_347" x="0" y="0.363037" width="311.318" height="311.318" filterUnits="userSpaceOnUse" color-interpolation-filters="sRGB">
<feFlood flood-opacity="0" result="BackgroundImageFix"/>
<feColorMatrix in="SourceAlpha" type="matrix" values="0 0 0 0 0 0 0 0 0 0 0 0 0 0 0 0 0 0 127 0" result="hardAlpha"/>
<feOffset dy="-17"/>
<feGaussianBlur stdDeviation="29"/>
<feColorMatrix type="matrix" values="0 0 0 0 0.696557 0 0 0 0 0.836898 0 0 0 0 0.818186 0 0 0 0.05 0"/>
<feBlend mode="normal" in2="BackgroundImageFix" result="effect1_dropShadow_1_347"/>
<feBlend mode="normal" in="SourceGraphic" in2="effect1_dropShadow_1_347" result="shape"/>
</filter>
<linearGradient id="paint0_linear_1_347" x1="544.728" y1="99.3508" x2="548.601" y2="123.235" gradientUnits="userSpaceOnUse">
<stop stop-color="#F4AF8A"/>
<stop offset="1" stop-color="#F9C0A1" stop-opacity="0"/>
</linearGradient>
<linearGradient id="paint1_linear_1_347" x1="380.268" y1="385.784" x2="389.961" y2="390.735" gradientUnits="userSpaceOnUse">
<stop stop-color="#F3AD8F"/>
<stop offset="1" stop-color="#FCC4AC" stop-opacity="0"/>
</linearGradient>
<linearGradient id="paint2_linear_1_347" x1="415.613" y1="515.447" x2="391.369" y2="503.047" gradientUnits="userSpaceOnUse">
<stop stop-color="#026CF0"/>
<stop offset="1" stop-color="#307FE2" stop-opacity="0"/>
</linearGradient>
<linearGradient id="paint3_linear_1_347" x1="359.041" y1="364.947" x2="378.136" y2="367.083" gradientUnits="userSpaceOnUse">
<stop stop-color="#FEA568"/>
<stop offset="1" stop-color="#F4B88E"/>
</linearGradient>
<linearGradient id="paint4_linear_1_347" x1="323.668" y1="479.38" x2="324.922" y2="468.993" gradientUnits="userSpaceOnUse">
<stop stop-color="#0154F7"/>
<stop offset="1" stop-color="#307FE2" stop-opacity="0"/>
</linearGradient>
<linearGradient id="paint5_linear_1_347" x1="454.318" y1="479.785" x2="445.67" y2="476.135" gradientUnits="userSpaceOnUse">
<stop stop-color="#0071FF"/>
<stop offset="1" stop-color="#307FE2" stop-opacity="0"/>
</linearGradient>
<linearGradient id="paint6_linear_1_347" x1="454.317" y1="479.786" x2="445.67" y2="476.135" gradientUnits="userSpaceOnUse">
<stop stop-color="#0071FF"/>
<stop offset="1" stop-color="#307FE2" stop-opacity="0"/>
</linearGradient>
</defs>
</svg>
